<?xml version="1.0" standalone="no"?>
<!DOCTYPE svg PUBLIC "-//W3C//DTD SVG 1.1//EN" "http://www.w3.org/Graphics/SVG/1.1/DTD/svg11.dtd" >
<!--
2017-5-13: Created.
-->
<svg xmlns="http://www.w3.org/2000/svg">
<metadata>
Created by FontForge 20120731 at Sat May 13 23:54:17 2017
 By icons8

</metadata>
<defs>
<font id="Downloaded" horiz-adv-x="512" >
  <font-face 
    font-family="Downloaded"
    font-weight="500"
    font-stretch="normal"
    units-per-em="512"
    panose-1="2 0 6 3 0 0 0 0 0 0"
    ascent="448"
    descent="-64"
    bbox="-0.639648 -64 512.64 448"
    underline-thickness="25.6"
    underline-position="-51.2"
    unicode-range="U+0020-F115"
  />
    <missing-glyph />
    <glyph glyph-name="space" unicode=" " horiz-adv-x="200" 
 />
    <glyph glyph-name="search" unicode="&#xf10e;" 
d="M304 400c88.1758 0 160 -71.8242 160 -160s-71.8242 -160 -160 -160c-38.3203 0 -73.4102 13.4229 -101 36l-127.5 -127.5l-23 23l127.5 127.5c-22.5771 27.5898 -36 62.6797 -36 101c0 88.1758 71.8242 160 160 160zM304 368c-70.8818 0 -128 -57.1182 -128 -128
s57.1182 -128 128 -128s128 57.1182 128 128s-57.1182 128 -128 128z" />
    <glyph glyph-name="literature" unicode="&#xf103;" 
d="M59.5195 427.52c0.132812 0.00683594 0.347656 0.0117188 0.480469 0.0117188s0.347656 -0.00488281 0.480469 -0.0117188c0.131836 0.00683594 0.34668 0.0117188 0.479492 0.0117188s0.347656 -0.00488281 0.480469 -0.0117188c78.165 0 128.621 -15.7949 159.68 -32
c15.5293 -8.10156 26.0791 -16.0479 32.96 -22.3994c0.825195 -0.762695 1.1875 -1.19922 1.91992 -1.91992c0.732422 0.720703 1.09473 1.15723 1.91992 1.91992c6.88086 6.35156 17.4307 14.2979 32.96 22.3994c31.0586 16.2051 81.5146 32 159.68 32
c5.65234 0 10.2402 -4.58789 10.2402 -10.2393v-51.2002h22.0801c15.9873 0 29.1201 -13.125 29.1201 -29.1201v-341.12c0 -15.9951 -13.1328 -29.1201 -29.1201 -29.1201h-170.88c-4.82324 -7.48828 -21.3975 -30.7197 -56 -30.7197s-51.1768 23.2314 -56 30.7197h-170.88
c-15.9873 0 -29.1201 13.125 -29.1201 29.1201v341.12c0 15.9951 13.1328 29.1201 29.1201 29.1201h22.0801v51.2002c-0.000976562 0.0498047 -0.00195312 0.129883 -0.00195312 0.180664c0 4.67578 3.72852 9.18262 8.32129 10.0586zM71.6797 406.4v-348.16
c70.4385 -1.01562 118.323 -10.3613 147.521 -20.4805c12.332 -4.27344 19.7705 -8.42969 26.5596 -12.1602v326.08c-0.638672 0.878906 -1.05566 2.0332 -5.43945 6.08008c-5.59961 5.16895 -14.8896 12.582 -28.8008 19.8398
c-26.4375 13.7939 -70.8311 27.415 -139.84 28.8008zM440.32 406.4c-69.0088 -1.38574 -113.402 -15.0068 -139.84 -28.8008c-13.9111 -7.25781 -23.2012 -14.6709 -28.8008 -19.8398c-4.38379 -4.04688 -4.80078 -5.20117 -5.43945 -6.08008v-326.08
c6.78906 3.73047 14.2275 7.88672 26.5596 12.1602c29.1973 10.1191 77.082 19.4648 147.521 20.4805v348.16zM29.1201 345.6c-4.88184 0 -8.63965 -3.7041 -8.63965 -8.63965v-341.12c0 -4.93555 3.75781 -8.63965 8.63965 -8.63965h175.68h0.0849609
c3.26562 0 7.24121 -2.29395 8.875 -5.12012c0 0 14.2607 -25.5996 42.2402 -25.5996s42.2402 25.5996 42.2402 25.5996c1.63379 2.82617 5.60938 5.12012 8.875 5.12012h0.0849609h175.68c4.88184 0 8.63965 3.7041 8.63965 8.63965v341.12
c0 4.93555 -3.75781 8.63965 -8.63965 8.63965h-22.0801v-296.96c0 -5.65137 -4.58789 -10.2393 -10.2402 -10.2393c-75.459 0 -123.104 -10.0469 -151.359 -19.8408c-14.1289 -4.89648 -23.1475 -9.67773 -28.7998 -13.1191
c-3.17188 -1.93164 -4.99707 -3.00488 -6.08008 -3.84082c-0.541016 -0.619141 -1.54492 -1.47949 -2.24023 -1.91992c-1.10645 -0.833008 -3.11328 -1.69238 -4.48047 -1.91992c-0.0439453 0 -0.115234 -0.000976562 -0.15918 -0.000976562
c-0.0449219 0 -0.116211 0.000976562 -0.160156 0.000976562c-0.392578 -0.0546875 -1.0332 -0.0996094 -1.42969 -0.0996094c-2.47754 0 -5.85156 1.47852 -7.53027 3.2998c-0.669922 0.578125 -2.30859 1.79395 -6.7207 4.48047
c-5.65234 3.44141 -14.6709 8.22266 -28.7998 13.1191c-28.2559 9.79395 -75.9004 19.8408 -151.359 19.8408c-5.65234 0 -10.2402 4.58789 -10.2402 10.2393v296.96h-22.0801z" />
    <glyph glyph-name="user-group-man-man" unicode="&#xf100;" 
d="M203.52 402.88h0.320312c22.3447 0 41.7314 -5.25391 52.4805 -19.2002c8.44336 -1.71094 15.9551 -4.65918 22.3994 -8.63965c14.124 10.9893 33.4023 17.1465 58.2402 17.5996c18.0254 0 33.4229 -4.85449 43.2002 -15.6797
c15.0293 -2.67773 26.9561 -10.0889 34.2402 -20.1602c7.67773 -10.6162 10.8584 -23.2656 11.8398 -35.8398c1.77637 -22.7803 -3.4502 -44.6963 -7.68066 -58.5596c3.8584 -5.14941 6.87598 -11.4287 5.76074 -20.8008v-0.319336
c-1.30566 -10.8018 -4.2334 -18.3926 -8.64062 -24c-2.16895 -2.76074 -5.01562 -2.9834 -7.67969 -4.48047c-1.56934 -8.95117 -4.03906 -17.8018 -7.67969 -25.2803c-2.1416 -4.39844 -4.60156 -8.48438 -7.04004 -11.8398
c-0.931641 -1.28125 -2.53809 -2.06641 -3.52051 -3.19922c-0.0625 -10.2568 0.107422 -18.999 0.959961 -29.7607c2.6084 -6.20117 8.49707 -11.4424 18.8799 -16.6396c10.7559 -5.38379 24.9336 -10.0977 39.3604 -16.3203
c14.4268 -6.22168 29.3682 -13.8154 41.2803 -25.9199s20.457 -29.084 21.7598 -50.8799l0.639648 -10.8799h-10.8799h-105.92c7.67188 -12.0723 12.6973 -26.7715 13.7598 -44.4805l0.640625 -10.8799h-10.8799h-389.12h-10.8799l0.639648 10.8799
c1.53125 25.4795 11.3613 44.793 25.2803 58.8809c13.918 14.0869 31.5391 23.0488 48.6396 30.3994s34.042 13.3525 47.04 19.8398c12.5938 6.28613 20.3506 12.7734 23.6797 20.7998c1.08887 13.3262 1.02832 23.8486 0.959961 36.4805
c-1.34082 1.43555 -3.21387 2.45508 -4.47949 4.16016c-2.8584 3.85059 -5.74414 8.61816 -8.32031 13.7598c-4.48047 8.94629 -7.46484 19.6904 -9.28027 30.4004c-3.30566 1.66016 -6.8877 1.98047 -9.59961 5.43945c-4.9375 6.29883 -8.40625 15.2559 -9.91992 27.8398
c-1.38281 11.5635 2.47266 19.2539 7.36035 24.96c-9.06934 37.3584 -11.8711 73.4893 0.639648 102.08c13.1367 30.0215 43.6816 49.3594 91.5195 50.2402zM203.84 382.4c-42.5801 -0.864258 -62.96 -15.2275 -72.96 -38.0801
c-10.0283 -22.918 -8.36035 -56.6582 1.28027 -93.7607l1.91992 -7.35938l-6.71973 -4.16016c0.441406 0.268555 -3.89844 -2.69238 -2.87988 -11.2002c1.20898 -10.0557 3.59766 -15.251 5.43945 -17.5996c1.8418 -2.34961 2.80273 -2.2334 2.87988 -2.24023
l8.64062 -0.639648l0.959961 -8.32031c0.935547 -8.76855 4.39062 -19.6768 8.63965 -28.1602c2.12402 -4.24121 4.46777 -7.95703 6.40039 -10.5596c1.93164 -2.60352 4.13379 -4.00879 3.19922 -3.52051l5.44043 -2.87988v-6.08008
c0 -14.8281 0.594727 -26.9971 -0.959961 -44.1602l-0.320312 -1.2793l-0.319336 -1.28027c-5.85156 -15.7314 -19.6416 -25.5137 -34.5605 -32.96s-31.8975 -12.9189 -48 -19.8398c-16.1025 -6.92188 -31.0088 -15.1973 -41.9199 -26.2402
c-8.67285 -8.77832 -14.0645 -20.3818 -16.96 -34.8799h363.52c-2.88672 14.5049 -8.32422 26.1035 -16.96 34.8799c-0.311523 0.316406 -0.641602 0.647461 -0.959961 0.959961c-0.0566406 0.0556641 -0.262695 -0.0556641 -0.319336 0
c-0.695312 0.439453 -1.69922 1.2998 -2.24023 1.91992c-0.477539 0.308594 -1.19434 0.882812 -1.59961 1.28027c-0.0527344 0.0449219 0.0517578 0.274414 0 0.319336c-10.2012 8.79395 -22.7559 15.8379 -36.4805 21.7607c-16.0352 6.91992 -33.1299 12.3916 -48 19.8398
s-28.3945 17.2441 -34.2402 32.96l-0.639648 1.28027v1.2793c-1.55469 17.168 -0.959961 29.3359 -0.959961 44.1602v6.08008l5.43945 2.87988c-0.981445 -0.514648 1.00195 0.933594 2.88086 3.52051c1.87793 2.58594 4.01562 6.31738 6.0791 10.5596
c4.12891 8.48438 7.69141 19.2998 8.64062 28.1602l0.959961 8.32031l8.63965 0.639648c0.078125 0.00683594 1.03809 -0.108398 2.87988 2.24023s4.23535 7.5459 5.44043 17.5996c1.02441 8.50488 -3.32129 11.4678 -2.87988 11.2002l-7.04004 4.16016l2.55957 8
c4.4541 13.3965 11.5205 41.9893 9.60059 66.5596c-0.960938 12.2861 -4.16309 23.3984 -9.91992 31.3604c-5.75781 7.96094 -13.917 13.7002 -28.1602 15.6797l-4.7998 0.640625l-2.56055 4.15918c-3.80176 6.67773 -17.1426 12.7256 -37.7598 12.8008h-0.320312z
M336.96 372.16c-19.5156 -0.40625 -33.2207 -4.47656 -42.8799 -10.8799c0.0488281 -0.0673828 -0.0488281 -0.25293 0 -0.320312c8.8291 -12.208 12.6104 -26.8936 13.7598 -41.5996c2.10547 -26.9443 -4.28027 -53.2021 -9.28027 -69.4404
c4.65234 -5.72266 8.39062 -13.1162 7.04004 -24.3203c-1.50781 -12.5859 -4.97949 -21.54 -9.91992 -27.8398c-2.64551 -3.37305 -6.06055 -3.77832 -9.2793 -5.43945c-1.77344 -10.6797 -4.91699 -21.4336 -9.28027 -30.4004
c-2.50195 -5.14062 -5.19336 -9.89453 -8 -13.7598c-1.24316 -1.71191 -3.14844 -2.71094 -4.48047 -4.16016c-0.0693359 -12.7461 -0.162109 -23.3018 0.959961 -36.7998c3.39355 -7.93262 11.2578 -14.2578 23.6807 -20.4805
c12.9482 -6.48535 29.6836 -12.4873 46.7197 -19.8398c14.4238 -6.22461 29.0166 -13.6533 41.5996 -24.3203h111.36c-2.5127 10.9619 -6.72754 20.0596 -13.4404 26.8809c-8.90918 9.05273 -21.1338 15.6494 -34.5596 21.4395
c-13.4258 5.79102 -27.6426 10.6143 -40.3203 16.96c-12.6768 6.3457 -24.6162 14.6699 -29.7598 28.4805l-0.639648 1.2793v1.28027c-1.30859 14.5713 -0.959961 24.9912 -0.959961 37.4404v6.08008l5.43945 2.55957c0.000976562 0.0185547 -0.0410156 0.270508 0 0.320312
h0.320312c0.354492 0.385742 1.01465 1.31445 1.91992 2.55957c1.50879 2.07617 3.09668 5.14062 4.7998 8.64062c3.40723 6.99805 6.58984 15.8477 7.36035 23.0391l0.639648 8.32031l8.64062 0.640625c-0.379883 -0.0332031 -0.0322266 -0.390625 1.2793 1.2793
c1.3125 1.66992 3.48145 5.81543 4.48047 14.0801c0.78418 6.5918 -2.85938 8.57324 -1.91992 8l-7.04004 4.16016l2.55957 7.67969c3.7002 11.1416 9.58398 35.374 8 55.6807c-0.791992 10.1533 -3.39453 19.2314 -8 25.5996s-11.084 10.542 -22.7197 12.1602
l-4.7998 0.959961l-2.56055 4.16016c-2.72949 4.79102 -13.3525 9.84277 -30.3994 9.91992h-0.320312z" />
    <glyph glyph-name="more-filled" unicode="&#xf114;" 
d="M92.1602 253.44c33.8838 0 61.4395 -27.5566 61.4395 -61.4404s-27.5557 -61.4404 -61.4395 -61.4404c-33.8848 0 -61.4404 27.5566 -61.4404 61.4404s27.5557 61.4404 61.4404 61.4404zM256 253.44c33.8838 0 61.4404 -27.5566 61.4404 -61.4404
s-27.5566 -61.4404 -61.4404 -61.4404s-61.4404 27.5566 -61.4404 61.4404s27.5566 61.4404 61.4404 61.4404zM419.84 253.44c33.8848 0 61.4404 -27.5566 61.4404 -61.4404s-27.5557 -61.4404 -61.4404 -61.4404c-33.8838 0 -61.4395 27.5566 -61.4395 61.4404
s27.5557 61.4404 61.4395 61.4404z" />
    <glyph glyph-name="menu" unicode="&#xf108;" 
d="M0 355.84h512v-20.4795h-512v20.4795zM0 202.24h512v-20.4805h-512v20.4805zM0 48.6396h512v-20.4795h-512v20.4795z" />
    <glyph glyph-name="plus-math" unicode="&#xf10f;" 
d="M245.76 355.84h20.4805v-153.6h153.6v-20.4805h-153.6v-153.6h-20.4805v153.6h-153.6v20.4805h153.6v153.6z" />
    <glyph glyph-name="settings" unicode="&#xf113;" 
d="M216 448h8.63965h61.4404h8.63965l1.60059 -8.32031l11.8398 -67.5195c13.4912 -3.93652 26.3652 -8.99316 38.3994 -15.6797l55.04 39.6797l7.36035 5.12012l6.08008 -6.08008l43.5195 -43.5205l6.08008 -6.08008l-5.12012 -7.04004l-39.3594 -56.3193
c6.60059 -12.0166 12.1143 -24.667 16 -38.0801l67.2002 -10.8799l8.63965 -1.28027v-8.95996v-61.4404v-8.31934l-8.32031 -1.60059l-67.8398 -11.8398c-3.85742 -13.3037 -9.13086 -26.1582 -15.6797 -38.0801l40 -55.3594l5.12012 -7.36035l-6.08008 -6.08008
l-43.5205 -43.5195l-6.08008 -6.08008l-7.04004 5.12012l-56.3193 39.3594c-12.0439 -6.69336 -24.6113 -12.3691 -38.0801 -16.3203l-11.8398 -67.1992l-1.60059 -8.32031h-8.63965h-61.4404h-8.63965l-1.28027 8.63965l-11.2002 67.2002
c-13.5566 3.92285 -26.5879 8.97949 -38.7197 15.6797l-55.3594 -39.0391l-7.04004 -5.12012l-6.08008 6.08008l-43.5205 43.5195l-6.08008 6.08008l5.12012 7.04004l39.3604 55.3604c-6.68555 12.0713 -12.0752 24.9072 -16 38.3994l-66.8799 11.8398l-8.32031 1.60059
v8.31934v61.4404v8.95996l8.63965 1.28027l66.8799 11.2002c3.94238 13.4932 9.02051 26.3486 15.6807 38.3994l-38.7197 55.6797l-5.12012 7.04004l6.08008 6.08008l43.5195 43.5205l6.08008 6.08008l7.04004 -5.12012l55.3604 -39.3604
c12.0244 6.5957 24.9766 11.5059 38.3994 15.3604l10.8799 67.2002zM233.6 427.52l-10.5596 -64l-0.959961 -6.71973l-6.71973 -1.59961c-16.457 -4.03711 -31.9756 -10.4023 -46.0801 -18.8799l-5.76074 -3.52051l-5.43945 4.16016l-52.7998 37.4404l-31.04 -31.04
l37.1201 -53.1201l3.83984 -5.44043l-3.52051 -5.75977c-8.57227 -14.1914 -15.0547 -29.8311 -19.1992 -46.4004l-1.60059 -6.39941l-6.71973 -1.28027l-63.6797 -10.5596v-44.1602l63.6797 -11.2002l6.39941 -1.28027l1.60059 -6.39941
c4.10059 -16.5117 10.918 -31.8682 19.5195 -46.0801l3.2002 -5.76074l-3.83984 -5.43945l-37.4404 -52.4805l31.04 -31.3594l53.1201 37.1201l5.75977 3.83984l5.44043 -3.52051c14.1699 -8.51367 29.6338 -14.8164 46.0801 -18.8799l6.71973 -1.59961l0.959961 -6.71973
l10.5605 -64h44.4795l11.2002 64.3193l1.28027 6.40039l6.39941 1.59961c16.3721 4.15332 31.75 10.6719 45.7607 19.2002l5.75977 3.51953l5.43945 -3.83984l53.7607 -37.4395l31.04 31.04l-38.0801 53.1201l-3.83984 5.43945l3.19922 5.75977
c8.44043 14.0459 14.8359 29.4395 18.8799 45.7607l1.60059 6.39941l6.71973 1.28027l64.6396 11.2002v44.1602l-64.6396 10.5596l-6.39941 1.28027l-1.9209 6.39941c-4.08594 16.335 -10.4365 31.7119 -18.8799 45.7607l-3.19922 5.75977l3.83984 5.43945l37.4395 53.7607
l-31.3594 31.04l-52.8008 -38.0801l-5.43945 -3.83984l-5.75977 3.51953c-14.0879 8.5293 -29.3311 15.1094 -45.7607 19.2002l-6.71973 1.59961l-0.959961 6.40039l-11.2002 64.3193h-44.1602zM256 284.16c50.7754 0 92.1602 -41.3848 92.1602 -92.1602
s-41.3848 -92.1602 -92.1602 -92.1602s-92.1602 41.3848 -92.1602 92.1602s41.3848 92.1602 92.1602 92.1602zM256 263.68c-39.7051 0 -71.6797 -31.9746 -71.6797 -71.6797s31.9746 -71.6797 71.6797 -71.6797s71.6797 31.9746 71.6797 71.6797
s-31.9746 71.6797 -71.6797 71.6797z" />
    <glyph glyph-name="administrator-male" unicode="&#xf10b;" 
d="M254.72 414.08h0.320312c22.5811 0 42.2822 -5.68262 53.1201 -20.1602c16.0752 -3.46973 28.8984 -11.0488 36.7998 -22.0801c8.75293 -12.2197 12.6445 -26.8857 13.7598 -41.5996c2.03223 -26.7988 -4.27148 -53.0244 -9.59961 -69.4404
c4.84863 -5.93555 7.94238 -13.8154 7.04004 -24.6396c-1.1416 -12.5596 -4.0293 -21.7129 -8.95996 -28.1602c-2.5498 -3.33301 -6.3125 -3.44922 -9.60059 -5.12012c-2.07617 -10.7773 -5.49609 -21.75 -9.91992 -30.7197c-2.50977 -5.08984 -5.2666 -9.625 -8 -13.4404
c-1.1582 -1.61719 -2.95117 -2.46387 -4.16016 -3.83984c0.00488281 -12.8447 0.174805 -23.2334 0.960938 -36.7998c2.7666 -6.49707 8.51465 -12.0957 17.2793 -17.2803c0.269531 -0.0751953 0.699219 -0.21875 0.959961 -0.319336
c0.279297 -0.161133 0.675781 -0.160156 0.959961 -0.320312c0.772461 -0.336914 1.91992 -1.05371 2.56055 -1.60059c0.131836 -0.0693359 0.186523 -0.25 0.319336 -0.319336c0.179688 -0.0820312 0.466797 -0.225586 0.640625 -0.320312
c0.444336 -0.228516 0.822266 -0.412109 1.28027 -0.639648c13.0527 -6.50488 29.958 -12.4531 47.0391 -19.8398c17.082 -7.38672 34.4814 -16.2559 48.3203 -30.4004s23.5586 -33.6875 24.96 -59.2002l0.640625 -10.8799h-10.8809h-389.119h-10.8809l0.640625 10.8799
c1.40234 25.5312 11.377 45.0635 25.2803 59.2002s31.2471 23.0176 48.3193 30.4004c17.0732 7.38281 33.8936 13.3594 46.7197 19.8398c0.317383 0.160156 0.649414 0.15918 0.960938 0.319336c0.405273 0.398438 1.12207 0.97168 1.59961 1.28027
c0.416992 0.305664 1.13379 0.735352 1.59961 0.959961c0.501953 0.321289 1.3623 0.750977 1.91992 0.959961c8.66016 5.11133 14.4336 10.2988 16.96 16.6406c1.59961 13.541 1.08398 23.7402 0.959961 37.1191c-1.34082 1.44434 -3.18945 2.41992 -4.47949 4.16016
c-2.81836 3.80176 -5.40332 8.31641 -8 13.4404c-4.58008 9.03711 -7.88086 19.9736 -9.59961 31.04c-2.89844 1.69238 -6.30371 1.74414 -8.64062 4.7998c-4.77637 6.24609 -8.53516 15.0215 -10.2402 27.5195v0.320312v0.320312
c-0.984375 11.8174 2.91406 19.6797 7.68066 25.2803c-8.87695 37.4453 -11.4824 73.4619 0.959961 102.079c13.0654 30.0508 43.4697 49.4805 91.5195 50.5605zM255.04 393.6c-42.8398 -1.04102 -63.0127 -15.5215 -72.96 -38.3994
c-9.97461 -22.9414 -8.49023 -56.7773 0.959961 -94.0801l1.59961 -7.04004l-5.75977 -4.16016c0.819336 0.545898 -4.00391 -3.75586 -3.83984 -11.5195c0.0224609 -0.163086 -0.0224609 -0.160156 0 -0.320312c0.00976562 -0.200195 -0.0175781 -0.115234 0 -0.320312
c1.40332 -9.41992 3.94141 -14.9014 5.75977 -17.2793c0.939453 -1.22949 1.88281 -1.74805 2.24023 -1.9209h8.63965l0.640625 -9.2793c0.844727 -8.87402 4.68164 -19.3994 8.95996 -27.8398c2.13867 -4.2207 4.4502 -7.92969 6.39941 -10.5605
c1.9502 -2.62988 3.96191 -4.27441 3.2002 -3.83984l5.12012 -2.87988v-6.08008c0 -9.97461 0.291992 -18.6621 0 -28.4805l40 -22.0801l39.3604 21.7607c-0.291016 9.5625 -0.320312 18.4863 -0.320312 28.7998v6.08008l5.12012 2.87988
c-0.852539 -0.487305 1.00488 0.90332 2.87988 3.51953c1.875 2.61719 4.30176 6.62598 6.40039 10.8809c4.19531 8.50781 7.95898 19.2373 9.2793 28.4795l0.959961 8.63965h8.95996c-0.34082 0 0.514648 -0.335938 2.24023 1.9209
c1.69629 2.21777 4.17773 7.63281 5.12012 17.2793c0.0166016 0.165039 -0.015625 0.15332 0 0.320312c0.408203 7.51562 -2.95898 10.9092 -2.87988 11.2002l-8 4.16016l3.2002 8.63965c4.68066 13.1064 11.7842 41.9717 9.91992 66.5596
c-0.932617 12.2939 -4.20898 23.3877 -9.91992 31.3604s-13.458 13.3828 -27.5205 15.3604l-5.12012 0.639648l-2.55957 4.48047c-4.25488 7.29297 -17.3125 13.0459 -37.7598 13.1191h-0.320312zM212.8 107.84c-3.72852 -8.1377 -9.84766 -14.5029 -16.96 -19.8398
l19.2002 -23.04l23.04 28.7998zM298.56 107.52l-24.6396 -13.7598l23.04 -28.7998l19.2002 23.04c-7.25977 5.29004 -13.5625 11.459 -17.6006 19.5195zM178.24 77.4404c-14.165 -6.87793 -29.9443 -12.3174 -45.1201 -18.8809
c-16.0791 -6.95312 -31.3438 -14.8398 -42.2402 -25.9199c-8.68652 -8.83203 -13.8203 -20.6123 -16.6396 -35.1992h153.279c5.13672 32.7119 23.3604 63.3594 23.3604 63.3594l-7.67969 6.40039l-20.1602 -24.96c-1.69727 -2.12402 -5.28125 -3.84766 -8 -3.84766
s-6.30273 1.72363 -8 3.84766zM333.76 77.4404l-28.7998 -35.2002c-1.69727 -2.12402 -5.28125 -3.84766 -8 -3.84766s-6.30273 1.72363 -8 3.84766l-20.1602 24.96l-7.67969 -6.40039s18.2324 -30.1982 23.3604 -63.3594h153.279
c-2.80566 14.5986 -8.00391 26.373 -16.6396 35.1992c-10.833 11.0723 -25.8496 18.9707 -41.9199 25.9199c-15.168 6.55957 -31.126 12.0215 -45.4404 18.8809z" />
    <glyph glyph-name="us-dollar" unicode="&#xf105;" 
d="M256 437.76c135.608 0 245.76 -110.151 245.76 -245.76s-110.151 -245.76 -245.76 -245.76s-245.76 110.151 -245.76 245.76s110.151 245.76 245.76 245.76zM256 417.28c-124.54 0 -225.28 -100.74 -225.28 -225.28s100.74 -225.28 225.28 -225.28
s225.28 100.74 225.28 225.28s-100.74 225.28 -225.28 225.28zM246.72 345.6h20.4805v-28.7998c49.1514 -2.04785 69.5674 -43.9678 67.5195 -72.6396h-21.4395c-1.02441 17.4082 -7.16797 56.3203 -56.3203 56.3203c-48.1279 0 -57.2803 -27.6484 -57.2803 -51.2002
c0 -70.6562 140.16 -23.3604 140.16 -115.521c0 -10.2402 -4.03223 -61.4395 -72.6396 -66.5596v-28.7998h-20.4805v28.7998c-27.6475 3.07227 -71.5518 12.0322 -73.5996 80.6396h21.4395c-2.04785 -64.5117 60.3525 -64.3203 62.4004 -64.3203
c60.416 0 62.4004 41.0244 62.4004 50.2402c0 72.7041 -140.16 21.5039 -140.16 117.76c0 19.4561 10.1758 62.208 67.5195 65.2803v28.7998z" />
    <glyph glyph-name="upload" unicode="&#xf10c;" 
d="M256 390.5l11.5 -11l112 -112l-23 -23l-84.5 84.5v-265h-32v265l-84.5 -84.5l-23 23l112 112zM112 32h288v-32h-288v32z" />
    <glyph glyph-name="move-stock" unicode="&#xf107;" 
d="M51.2002 396.8h409.6c11.2646 0 20.4805 -9.21582 20.4805 -20.4795v-120.84l-20.4805 20.4795v100.36h-409.6v-368.641h409.6v100.36l20.4805 20.4795v-120.84c0 -11.2637 -9.21582 -20.4795 -20.4805 -20.4795h-409.6c-11.2646 0 -20.4805 9.21582 -20.4805 20.4795
v368.641c0 11.2637 9.21582 20.4795 20.4805 20.4795zM209.92 335.36h92.1602c19.4561 0 35.8398 -16.3848 35.8398 -35.8408c0 -19.4551 -16.3838 -35.8398 -35.8398 -35.8398h-92.1602c-19.4561 0 -35.8398 16.3848 -35.8398 35.8398
c0 19.4561 16.3838 35.8408 35.8398 35.8408zM209.92 314.88c-8.19238 0 -15.3604 -7.16797 -15.3604 -15.3604c0 -8.19141 7.16797 -15.3594 15.3604 -15.3594h92.1602c8.19141 0 15.3604 7.16797 15.3604 15.3594c0 8.19238 -7.16895 15.3604 -15.3604 15.3604h-92.1602z
M430.08 273.92c2.55957 0 5.1123 -1.03223 7.16016 -3.08008l71.6797 -71.6797c4.0957 -4.0957 4.0957 -10.2246 0 -14.3203l-71.6797 -71.6797c-2.04785 -2.04785 -4.08789 -3.08008 -7.16016 -3.08008s-5.1123 1.03223 -7.16016 3.08008
c-4.0957 4.0957 -4.0957 10.2236 0 14.3203l54.2598 54.2793h-180.22c-6.14355 0 -10.2402 4.09668 -10.2402 10.2402s4.09668 10.2402 10.2402 10.2402h180.22l-54.2598 54.2793c-4.0957 4.09668 -4.0957 10.2246 0 14.3203
c2.04785 2.04785 4.59961 3.08008 7.16016 3.08008z" />
    <glyph glyph-name="forward" unicode="&#xf110;" 
d="M153.5 407.14c2.38672 0 5.67578 -1.38867 7.33984 -3.09961l204.8 -204.8c1.65527 -1.65625 2.99805 -4.89941 2.99805 -7.24023s-1.34277 -5.58398 -2.99805 -7.24023l-204.8 -204.8c-1.66797 -1.73828 -4.97754 -3.14844 -7.38672 -3.14844
c-5.65332 0 -10.2412 4.58789 -10.2412 10.2412c0 2.40918 1.41016 5.71875 3.14844 7.3877l197.56 197.56l-197.56 197.56c-1.71094 1.66504 -3.09863 4.95312 -3.09863 7.33984c0 5.65137 4.58691 10.2393 10.2383 10.2402z" />
    <glyph glyph-name="test-partial-passed" unicode="&#xf102;" 
d="M256 448c18.9092 0 34.3965 -13.2041 39.04 -30.7197h31.6797h0.959961l0.320312 0.00488281l0.320312 -0.00488281h0.959961h90.5596c16.8447 0 30.7197 -13.876 30.7197 -30.7207v-399.359c0 -16.8447 -13.875 -30.7197 -30.7197 -30.7197h-327.68
c-16.8447 0 -30.7197 13.875 -30.7197 30.7197v399.359c0 16.8447 13.875 30.7207 30.7197 30.7207h91.2002h0.959961h1.59961h31.04c4.64355 17.5156 20.1309 30.7197 39.04 30.7197zM256 427.52c-11.4346 0 -20.4805 -9.04492 -20.4805 -20.4795
c0 -5.65234 -4.58789 -10.2393 -10.2393 -10.2402h-30.7207v-20.4795h122.881v20.4795h-30.7207c-5.65137 0.000976562 -10.2393 4.58789 -10.2393 10.2402c0 11.4346 -9.0459 20.4795 -20.4805 20.4795zM92.1602 396.8c-5.78613 0 -10.2402 -4.4541 -10.2402 -10.2402
v-399.359c0 -5.78613 4.4541 -10.2402 10.2402 -10.2402h327.68c5.78613 0 10.2402 4.4541 10.2402 10.2402v399.359c0 5.78613 -4.4541 10.2402 -10.2402 10.2402h-81.9199v-30.7197c0 -5.65234 -4.58789 -10.2393 -10.2402 -10.2402h-143.359
c-5.65234 0.000976562 -10.2402 4.58789 -10.2402 10.2402v30.7197h-81.9199zM368.64 274.56c0.182617 0.0126953 0.479492 0.0214844 0.662109 0.0214844c5.65234 0 10.2402 -4.58789 10.2402 -10.2402c0 -1.99219 -1.0127 -4.86914 -2.26172 -6.4209l-40.3203 -60.1602
c-0.0751953 -0.268555 -0.21875 -0.699219 -0.320312 -0.959961l-0.319336 -0.319336c-0.0869141 -0.0908203 -0.230469 -0.234375 -0.320312 -0.320312c-0.162109 -0.275391 -0.448242 -0.705078 -0.639648 -0.959961
c-0.248047 -0.282227 -0.677734 -0.712891 -0.959961 -0.959961c-0.173828 -0.0947266 -0.460938 -0.238281 -0.640625 -0.320312c-0.168945 -0.18457 -0.455078 -0.470703 -0.639648 -0.639648c-0.260742 -0.101562 -0.69043 -0.245117 -0.959961 -0.320312
c-0.173828 -0.0947266 -0.460938 -0.237305 -0.640625 -0.320312c-0.597656 -0.246094 -1.60156 -0.532227 -2.23926 -0.639648l-0.160156 -0.000976562l-0.160156 0.000976562c-0.264648 -0.0244141 -0.694336 -0.0439453 -0.959961 -0.0439453
s-0.695312 0.0195312 -0.959961 0.0439453l-0.160156 -0.000976562l-0.160156 0.000976562c-0.0878906 -0.00292969 -0.231445 -0.00488281 -0.319336 -0.00488281c-0.0888672 0 -0.232422 0.00195312 -0.320312 0.00488281l-0.160156 -0.000976562l-0.160156 0.000976562
c-0.179688 0.0820312 -0.46582 0.225586 -0.639648 0.320312l-0.160156 -0.00195312l-0.160156 0.00195312c-0.179688 0.0820312 -0.46582 0.225586 -0.639648 0.319336l-0.160156 -0.000976562l-0.160156 0.000976562
c-0.179688 0.0830078 -0.46582 0.225586 -0.639648 0.320312c-0.179688 0.0820312 -0.466797 0.225586 -0.640625 0.320312c-0.365234 0.152344 -0.938477 0.438477 -1.2793 0.639648c-0.0908203 0.0869141 -0.233398 0.229492 -0.320312 0.320312
c-0.0898438 0.0859375 -0.233398 0.229492 -0.320312 0.319336c-0.0898438 0.0869141 -0.233398 0.230469 -0.319336 0.320312l-0.640625 0.639648c-0.183594 0.168945 -0.470703 0.456055 -0.639648 0.640625l-29.4404 29.4395
c-1.81738 1.67871 -3.29297 5.0498 -3.29297 7.52344c0 4.71973 3.76953 9.23438 8.41309 10.0771c0.347656 0.111328 0.920898 0.253906 1.28027 0.319336c0.234375 0.0195312 0.615234 0.0361328 0.849609 0.0361328c2.44922 0 5.7959 -1.4502 7.4707 -3.23535
l21.7598 -21.7607l33.9199 50.8809c1.25586 1.96484 4.12305 3.97168 6.40039 4.47949c0.172852 0.0947266 0.459961 0.238281 0.639648 0.320312c0.43457 0.123047 1.15137 0.266602 1.59961 0.319336zM140.48 243.2
c0.131836 0.00585938 0.34668 0.0107422 0.479492 0.0107422s0.347656 -0.00488281 0.480469 -0.0107422c0.131836 0.00585938 0.34668 0.0107422 0.479492 0.0107422s0.347656 -0.00488281 0.480469 -0.0107422c0.131836 0.00585938 0.34668 0.0107422 0.479492 0.0107422
s0.347656 -0.00488281 0.480469 -0.0107422h102.399l0.145508 0.000976562c5.65234 0 10.2402 -4.58789 10.2402 -10.2412s-4.58789 -10.2412 -10.2402 -10.2412l-0.145508 0.000976562h-102.399c-0.395508 -0.0556641 -1.04102 -0.100586 -1.44043 -0.100586
c-5.70801 0 -10.3408 4.63281 -10.3408 10.3408c0 4.96191 3.9873 9.54883 8.90137 10.2402zM296 141.12c0.234375 0.0195312 0.615234 0.0351562 0.849609 0.0351562c2.44922 0 5.7959 -1.44922 7.4707 -3.23535l23.3594 -23.3604l23.3604 23.3604
c1.40137 1.37891 4.125 2.66895 6.08008 2.87988c0.455078 0.0751953 1.19922 0.135742 1.66016 0.135742c5.65332 0 10.2412 -4.58789 10.2412 -10.2412c0 -2.45996 -1.46094 -5.81738 -3.26172 -7.49414l-23.3594 -23.3604l23.3594 -23.3594
c1.68262 -1.68359 3.04883 -4.98047 3.04883 -7.36035c0 -5.74609 -4.66309 -10.4092 -10.4082 -10.4092c-2.37988 0 -5.67773 1.36621 -7.36035 3.04883l-23.3604 23.3604l-23.3594 -23.3604c-1.68359 -1.68262 -4.98047 -3.04883 -7.36035 -3.04883
c-5.74512 0 -10.4082 4.66309 -10.4082 10.4092c0 2.37988 1.36523 5.67676 3.04785 7.36035l23.3604 23.3594l-23.3604 23.3604c-1.81738 1.67871 -3.29297 5.04883 -3.29297 7.52344c0 4.71973 3.76953 9.2334 8.41309 10.0762
c0.347656 0.111328 0.920898 0.254883 1.28027 0.320312zM140.48 110.08c0.131836 0.00585938 0.34668 0.0107422 0.479492 0.0107422s0.347656 -0.00488281 0.480469 -0.0107422c0.131836 0.00585938 0.34668 0.0107422 0.479492 0.0107422
s0.347656 -0.00488281 0.480469 -0.0107422c0.131836 0.00585938 0.34668 0.0107422 0.479492 0.0107422s0.347656 -0.00488281 0.480469 -0.0107422h102.399l0.145508 0.000976562c5.65234 0 10.2402 -4.58789 10.2402 -10.2412s-4.58789 -10.2412 -10.2402 -10.2412
l-0.145508 0.000976562h-102.399c-0.395508 -0.0556641 -1.04102 -0.100586 -1.44043 -0.100586c-5.70801 0 -10.3408 4.63281 -10.3408 10.3408c0 4.96191 3.9873 9.54883 8.90137 10.2402z" />
    <glyph glyph-name="user" unicode="&#xf109;" 
d="M264.96 413.12h0.320312c22.3447 0 41.7314 -5.25391 52.4795 -19.2002c16.5527 -3.35547 29.6699 -11.5322 37.7598 -22.7197c8.83008 -12.209 12.6113 -26.8945 13.7607 -41.6006c2.10547 -26.9434 -4.28027 -53.2012 -9.28027 -69.4395
c4.65234 -5.72266 8.38965 -13.1162 7.04004 -24.3203c-1.50879 -12.5859 -4.98047 -21.541 -9.91992 -27.8398c-2.64551 -3.37305 -6.06055 -3.77832 -9.28027 -5.44043c-1.77344 -10.6758 -4.91699 -21.4336 -9.28027 -30.3994
c-2.50098 -5.13965 -5.19434 -9.89453 -8 -13.7598c-1.2627 -1.74023 -3.12207 -2.69238 -4.47949 -4.16016c-0.0693359 -12.7461 -0.162109 -23.3018 0.959961 -36.7998c3.39355 -7.93555 11.2568 -14.2578 23.6797 -20.4805
c12.9482 -6.48535 29.6846 -12.4883 46.7207 -19.8398s34.4551 -16.3105 48.3193 -30.4004c13.8652 -14.0889 23.752 -33.4102 25.2803 -58.8799l0.639648 -10.8799h-10.8799h-389.12h-10.8799l0.640625 10.8799c1.53125 25.4785 11.3613 44.7939 25.2793 58.8799
c13.9189 14.0869 31.5391 23.0508 48.6406 30.4004c17.1006 7.34961 34.042 13.3525 47.04 19.8398c12.5928 6.28613 20.3496 12.7705 23.6797 20.7998c1.08887 13.3262 1.02734 23.8477 0.959961 36.4805c-1.34082 1.43555 -3.21484 2.45508 -4.48047 4.16016
c-2.85645 3.84961 -5.74414 8.61816 -8.31934 13.7598c-4.48145 8.94531 -7.46484 19.6904 -9.28027 30.3994c-3.30664 1.66113 -6.88867 1.98145 -9.59961 5.44043c-4.9375 6.29883 -8.40625 15.2559 -9.91992 27.8398c-1.38379 11.5635 2.47168 19.2529 7.35938 24.96
c-9.06836 37.3574 -11.8711 73.4893 0.640625 102.08c13.1367 30.0205 43.6816 49.3594 91.5195 50.2402zM265.28 392.64c-42.5801 -0.863281 -62.96 -15.2266 -72.96 -38.0801c-10.0293 -22.917 -8.36035 -56.6582 1.2793 -93.7598l1.91992 -7.35938l-6.71973 -4.16016
c0.441406 0.268555 -3.89746 -2.69336 -2.87988 -11.2002c1.20996 -10.0566 3.59863 -15.251 5.44043 -17.5996c1.84082 -2.34961 2.80176 -2.23438 2.87988 -2.24023l8.63965 -0.640625l0.959961 -8.31934c0.935547 -8.76855 4.39062 -19.6787 8.64062 -28.1602
c2.12402 -4.24121 4.4668 -7.95605 6.39941 -10.5605c1.93262 -2.60352 4.125 -4.00488 3.2002 -3.51953l5.43945 -2.87988v-6.08008c0 -14.8291 0.594727 -26.9971 -0.959961 -44.1602l-0.319336 -1.28027l-0.320312 -1.2793
c-5.85059 -15.7334 -19.6406 -25.5137 -34.5596 -32.96c-14.9199 -7.44727 -31.8975 -12.9199 -48 -19.8408c-16.1025 -6.91992 -31.0098 -15.1973 -41.9199 -26.2393c-8.67383 -8.77832 -14.0654 -20.3818 -16.96 -34.8799h363.52
c-2.88672 14.5049 -8.32422 26.1045 -16.96 34.8799c-10.8643 11.0391 -25.5645 19.3203 -41.5996 26.2393c-16.0361 6.91992 -33.1299 12.3916 -48 19.8408c-14.8711 7.44824 -28.3955 17.2422 -34.2402 32.96l-0.640625 1.2793v1.28027
c-1.55469 17.168 -0.959961 29.3359 -0.959961 44.1602v6.08008l5.44043 2.87988c-0.973633 -0.512695 1.00098 0.930664 2.87988 3.51953s4.01562 6.31836 6.08008 10.5605c4.12891 8.48438 7.69141 19.3047 8.63965 28.1602l0.959961 8.31934l8.64062 0.640625
c0.078125 0.00585938 1.03809 -0.108398 2.87988 2.24023c1.8418 2.34766 4.23438 7.54492 5.43945 17.5996c1.02539 8.50488 -3.32129 11.4678 -2.87988 11.2002l-7.04004 4.16016l2.56055 8c4.4541 13.3955 11.5205 41.9883 9.59961 66.5596
c-0.959961 12.2852 -4.16211 23.3984 -9.91992 31.3604c-5.75781 7.96094 -13.917 13.7002 -28.1602 15.6797l-4.7998 0.639648l-2.55957 4.16016c-3.80176 6.67773 -17.1436 12.7246 -37.7607 12.7998h-0.319336z" />
    <glyph glyph-name="businessman" unicode="&#xf10a;" 
d="M276.48 407.04h0.0703125c3.53613 0 7.66211 -2.58008 9.20898 -5.75977l8 -16c15.6406 -1.59668 29.1211 -7.30371 38.7207 -16.6406c11.1064 -10.8027 18.0195 -24.8955 21.7598 -39.3594c3.73926 -14.4639 4.27148 -29.292 2.87988 -42.5605
c-0.973633 -9.27539 -3.0918 -17.4658 -6.40039 -24.6396c1.17285 -1.64941 2.4541 -3.31738 3.2002 -5.12012c2.34668 -5.67188 2.86133 -12.3818 2.24023 -19.8398c-1.1416 -12.5596 -4.0293 -21.7119 -8.95996 -28.1602
c-2.5498 -3.33301 -6.3125 -3.44922 -9.60059 -5.12012c-2.08496 -10.4004 -5.53027 -21.0566 -9.91992 -30.0801c-2.49609 -5.13086 -5.28027 -9.87012 -8 -13.7598c-1.08691 -1.55566 -2.71875 -2.49805 -3.83984 -3.83984
c0.104492 -8.51758 0.341797 -16.6514 0.959961 -25.2803h0.0078125c1.98145 0 4.84473 -1.00293 6.39258 -2.24023c0.524414 -0.360352 1.08496 -0.59082 1.59961 -0.959961c0.18457 -0.168945 0.47168 -0.455078 0.640625 -0.639648
c15.3242 -11.1602 26.1641 -25.2627 28.7998 -28.7998c55.9512 -9.74512 106.56 -54.9531 106.56 -111.04c0 -5.65234 -4.58789 -10.2393 -10.2402 -10.2402h-169.92c-0.819336 -0.254883 -2.18164 -0.461914 -3.04004 -0.461914s-2.21973 0.207031 -3.04004 0.461914
h-36.4795c-0.819336 -0.254883 -2.18164 -0.461914 -3.04004 -0.461914s-2.2207 0.207031 -3.04004 0.461914h-46.7197h-1.91992h-121.92c-5.65234 0.000976562 -10.2402 4.58789 -10.2402 10.2402c0 46.5127 42.2783 97.3682 105.6 112
c14.2842 20.0967 31.6807 31.04 31.6807 31.04c1.27734 0.707031 3.49902 1.28125 4.95898 1.28125l0.160156 -0.00195312h0.320312c0.621094 8.33008 1.15723 16.2168 1.28027 24.9609c-1.28125 1.39844 -2.91895 2.48438 -4.16016 4.15918
c-2.81836 3.80176 -5.40332 8.31641 -8 13.4404c-4.58594 9.04688 -7.88379 20.2812 -9.59961 31.3604c-2.89844 1.69238 -6.30371 1.74414 -8.64062 4.7998c-4.77637 6.24609 -8.53516 15.0205 -10.2402 27.5195
c-0.00195312 0.0888672 -0.00488281 0.231445 -0.00488281 0.320312c0 0.0878906 0.00292969 0.231445 0.00488281 0.320312c-0.953125 11.4404 2.82227 18.709 7.36035 24.3193c-12.2324 32.3779 -10.4854 67.4561 7.67969 95.04
c19.3398 29.3672 56.1377 49.2803 106.881 49.2803zM270.4 385.92c-41.7393 -1.55566 -69.0459 -17.3799 -83.5205 -39.3604c-15.2207 -23.1133 -17.0566 -53.5059 -4.47949 -81.9199c0.469727 -1.0791 0.850586 -2.91016 0.850586 -4.08789
c0 -2.94434 -1.95801 -6.7041 -4.37109 -8.3916c0.819336 0.545898 -4.00391 -3.75586 -3.83984 -11.5205c0.0214844 -0.15918 -0.0224609 -0.162109 0 -0.319336c0.00976562 -0.200195 -0.0175781 -0.115234 0 -0.320312
c1.40234 -9.42871 3.94043 -15.2207 5.75977 -17.5996c0.658203 -0.860352 1.18848 -1.37305 1.60059 -1.60059c0.767578 0 0.99707 -0.0927734 0.639648 0c4.69922 -0.423828 8.85645 -4.58105 9.28027 -9.28027c0.844727 -8.87305 4.68164 -19.7188 8.95996 -28.1592
c2.13867 -4.2207 4.4502 -7.92969 6.39941 -10.5605c1.9502 -2.62988 3.96191 -3.95508 3.2002 -3.51953c2.82617 -1.63184 5.12012 -5.60547 5.12012 -8.86914v-0.0908203c0 -14.2832 -0.712891 -22.5938 -1.59961 -35.8398
c0.361328 -0.961914 0.654297 -2.57715 0.654297 -3.60449c0 -0.15332 -0.00585938 -0.402344 -0.0146484 -0.555664c0 -2.04395 0.842773 -4.07617 3.51953 -6.7207c2.67773 -2.64355 6.91602 -5.16992 11.5205 -7.35938
c8.24219 -3.91992 15.8828 -5.96387 17.5996 -6.40039h16.6406c0.637695 0.162109 2.79883 0.660156 4.7998 1.28027c0.474609 0.150391 1.08789 0.469727 1.59961 0.639648c3.15527 1.05566 7.0791 2.52051 11.2002 4.48047
c4.60449 2.18945 8.84277 4.71582 11.5205 7.35938c1.37109 1.35449 2.33105 2.41699 2.87988 3.52051c0.544922 1.09375 0.639648 2.17773 0.639648 3.2002c-0.00292969 0.0878906 -0.00488281 0.231445 -0.00488281 0.319336
c0 0.0888672 0.00195312 0.232422 0.00488281 0.320312l-0.000976562 0.160156l0.000976562 0.160156c-0.00585938 0.131836 -0.0107422 0.34668 -0.0107422 0.479492s0.00488281 0.347656 0.0107422 0.480469c-0.932617 14.3398 -1.91992 23.2188 -1.91992 37.1201
c0.0712891 3.17969 2.36523 7.0498 5.12012 8.63965c-1.01172 -0.578125 0.991211 1.1377 2.87988 3.83984s3.96777 6.53906 6.08008 10.8799c4.22363 8.68164 8.29297 19.4473 9.59961 28.1602c0.740234 4.67871 5.18457 8.5498 9.91992 8.63965
c-0.34082 0 0.514648 -0.335938 2.24023 1.9209c1.72559 2.25586 4.21387 7.63086 5.12012 17.5996c0.402344 4.83008 -0.554688 8.4873 -1.28027 10.2402c-0.18457 0.446289 -0.0517578 0.551758 0 0.639648c-3.84473 1.29785 -6.96484 5.64551 -6.96484 9.70312
c0 1.94336 0.969727 4.76465 2.16504 6.29688c2.50293 3.19824 5.9043 12.2129 7.04004 23.04s0.484375 23.4238 -2.55957 35.2002c-3.04492 11.7754 -8.38672 22.3545 -16 29.7598s-17.4297 12.1602 -31.6807 12.1602h-0.0712891
c-3.53613 0 -7.66113 2.58008 -9.20801 5.75977zM186.88 103.36c-3.65039 -3.38281 -7.90137 -8.24121 -12.1602 -14.0801l7.36035 -27.8398c0.161133 -0.662109 0.292969 -1.75098 0.292969 -2.43164c0 -2.97949 -1.99512 -6.76465 -4.45312 -8.44922l-19.8398 -14.0791
l31.04 -39.04h31.04c-3.86035 10.9834 -9.16504 26.1377 -15.3604 45.1191c-5.01953 15.3809 -9.94531 31.3789 -13.7598 45.1201c-1.64062 5.91016 -3.01465 10.8984 -4.16016 15.6807zM324.48 100.8c-1.04492 -4.14355 -2.14648 -8.17188 -3.52051 -13.1201
c-3.81445 -13.7412 -8.74023 -29.7393 -13.7598 -45.1201c-6.19531 -18.9814 -11.5 -34.1357 -15.3604 -45.1191h31.04l31.04 39.04l-19.8398 14.0791c-2.45801 1.68457 -4.45312 5.46973 -4.45312 8.44922c0 0.680664 0.131836 1.76953 0.292969 2.43164l7.04004 25.5996
c-2.25 2.71973 -6.68945 8.12598 -12.4795 13.7598zM210.24 94.0801c0.0996094 -0.366211 0.217773 -0.59082 0.319336 -0.959961c3.67383 -13.2344 8.7959 -28.9482 13.7607 -44.1602c3.62891 -11.1221 6.77832 -20.5664 9.91992 -29.7598l11.5195 39.6797l-9.2793 23.04
c-4.18262 1.30078 -9.53125 3.13965 -15.04 5.75977c-3.71875 1.76855 -7.56934 3.81641 -11.2002 6.40039zM301.76 94.0801c-0.753906 -0.537109 -1.4707 -1.10547 -2.24023 -1.59961c-1.06641 -0.681641 -2.11621 -1.3125 -3.19922 -1.9209
c-1.88477 -1.06836 -3.89453 -1.99219 -5.76074 -2.87988c-5.50879 -2.62012 -10.8574 -4.45898 -15.04 -5.75977l-9.2793 -23.04l11.5195 -39.6797c3.1416 9.19336 6.29102 18.6377 9.91992 29.7598c4.96484 15.2119 10.0869 30.9258 13.7607 44.1602
c0.101562 0.369141 0.219727 0.59375 0.319336 0.959961zM156.16 78.7197c-46.8398 -12.7842 -76.6143 -50.1455 -82.2402 -81.2793h88.96l-27.5195 34.5596c-1.26172 1.55566 -2.28418 4.44434 -2.28418 6.44727c0 2.87305 1.88281 6.5791 4.2041 8.27246l23.04 16.3203z
M355.52 77.7598l-3.83984 -14.7197l23.04 -16.3203c2.30957 -1.69336 4.18457 -5.39355 4.18457 -8.25781c0 -0.193359 -0.0107422 -0.508789 -0.0244141 -0.702148c0.0107422 -0.175781 0.0205078 -0.462891 0.0205078 -0.639648
s-0.00976562 -0.463867 -0.0205078 -0.639648c-0.306641 -1.39258 -1.30957 -3.40039 -2.24023 -4.48047l-27.5195 -34.5596h88.6396c-5.92285 37.7793 -41.1221 71.2139 -82.2402 80.3193z" />
    <glyph glyph-name="expand-arrow" unicode="&#xf111;" 
d="M460.7 304.78l0.241211 0.00292969c5.65332 0 10.2412 -4.58789 10.2412 -10.2412c0 -2.40723 -1.4082 -5.71387 -3.14258 -7.38184l-204.8 -204.8c-1.65625 -1.65527 -4.89941 -2.99805 -7.24023 -2.99805s-5.58398 1.34277 -7.24023 2.99805l-204.8 204.8
c-1.70996 1.66406 -3.09863 4.95215 -3.09863 7.33887c0 5.65137 4.58691 10.2393 10.2383 10.2412c2.3877 0 5.67578 -1.38867 7.34082 -3.10059l197.56 -197.56l197.56 197.56c1.61426 1.67871 4.8125 3.08496 7.14062 3.14062z" />
    <glyph glyph-name="bulleted-list" unicode="&#xf112;" 
d="M40.96 407.04c22.5 0 40.96 -18.46 40.96 -40.96s-18.46 -40.96 -40.96 -40.96s-40.96 18.46 -40.96 40.96s18.46 40.96 40.96 40.96zM40.96 386.56c-11.4316 0 -20.4795 -9.04785 -20.4795 -20.4795c0 -11.4326 9.04785 -20.4805 20.4795 -20.4805
s20.4805 9.04785 20.4805 20.4805c0 11.4316 -9.04883 20.4795 -20.4805 20.4795zM122.88 376.32h389.12v-20.4805h-389.12v20.4805zM40.96 232.96c22.5 0 40.96 -18.46 40.96 -40.96s-18.46 -40.96 -40.96 -40.96s-40.96 18.46 -40.96 40.96s18.46 40.96 40.96 40.96z
M40.96 212.48c-11.4316 0 -20.4795 -9.04883 -20.4795 -20.4805s9.04785 -20.4805 20.4795 -20.4805s20.4805 9.04883 20.4805 20.4805s-9.04883 20.4805 -20.4805 20.4805zM122.88 202.24h389.12v-20.4805h-389.12v20.4805zM40.96 58.8799
c22.5 0 40.96 -18.46 40.96 -40.96s-18.46 -40.96 -40.96 -40.96s-40.96 18.46 -40.96 40.96s18.46 40.96 40.96 40.96zM40.96 38.4004c-11.4316 0 -20.4795 -9.04785 -20.4795 -20.4805c0 -11.4316 9.04785 -20.4795 20.4795 -20.4795s20.4805 9.04785 20.4805 20.4795
c0 11.4326 -9.04883 20.4805 -20.4805 20.4805zM122.88 28.1602h389.12v-20.4805h-389.12v20.4805z" />
    <glyph glyph-name="sort-filled" unicode="&#xf115;" 
d="M256 417.28l184.32 -194.561h-368.641zM71.6797 181.76h368.641l-184.32 -194.56z" />
    <glyph glyph-name="delete" unicode="&#xf106;" 
d="M215.04 427.52h81.9199c16.8496 0 30.7197 -13.8701 30.7197 -30.7197v-20.4795h79.6807h4.15918h18.5605l0.144531 0.000976562c5.65332 0 10.2412 -4.58789 10.2412 -10.2412s-4.58789 -10.2412 -10.2412 -10.2412l-0.144531 0.000976562h-10.2402v-368.64
c0 -16.8496 -13.8701 -30.7197 -30.7197 -30.7197h-266.24c-16.8496 0 -30.7197 13.8701 -30.7197 30.7197v368.64h-10.2402c-0.132812 -0.00585938 -0.347656 -0.0107422 -0.479492 -0.0107422c-5.65918 0 -10.252 4.5918 -10.252 10.251
c0 5.39941 4.37793 9.9873 9.77148 10.2402c0.132812 0.00585938 0.347656 0.0107422 0.480469 0.0107422c0.131836 0 0.34668 -0.00488281 0.479492 -0.0107422h18.2402c0.568359 0.117188 1.5 0.212891 2.08008 0.212891s1.51172 -0.0957031 2.08008 -0.212891h80v20.4795
c0 16.8496 13.8701 30.7197 30.7197 30.7197zM215.04 407.04c-5.67871 0 -10.2402 -4.56152 -10.2402 -10.2402v-20.4795h102.4v20.4795c0 5.67871 -4.56152 10.2402 -10.2402 10.2402h-81.9199zM112.64 355.84v-368.64c0 -5.67871 4.56152 -10.2402 10.2402 -10.2402
h266.24c5.67871 0 10.2402 4.56152 10.2402 10.2402v368.64h-286.721zM193.6 304.96c0.266602 0.0253906 0.699219 0.0458984 0.96582 0.0458984c5.65332 0 10.2412 -4.58789 10.2412 -10.2412c0 -0.100586 -0.00292969 -0.263672 -0.00683594 -0.364258v-256
l0.000976562 -0.145508c0 -5.65234 -4.58789 -10.2412 -10.2412 -10.2412c-5.65234 0 -10.2402 4.58887 -10.2402 10.2412l0.000976562 0.145508v256c-0.00195312 0.0673828 -0.00292969 0.177734 -0.00292969 0.246094c0 4.52734 3.58496 9.00391 8.00293 9.99316
c0.347656 0.111328 0.920898 0.254883 1.2793 0.320312zM255.04 304.96c0.265625 0.0253906 0.698242 0.0458984 0.96582 0.0458984c5.65234 0 10.2402 -4.58789 10.2402 -10.2412c0 -0.100586 -0.00292969 -0.263672 -0.00585938 -0.364258v-256l0.000976562 -0.145508
c0 -5.65234 -4.58789 -10.2412 -10.2412 -10.2412s-10.2412 4.58887 -10.2412 10.2412l0.000976562 0.145508v256l-0.00292969 0.246094c0 4.52734 3.58594 9.00391 8.00293 9.99316c0.347656 0.111328 0.920898 0.254883 1.28027 0.320312zM316.48 304.96
c0.265625 0.0253906 0.698242 0.0458984 0.964844 0.0458984c5.65332 0 10.2412 -4.58789 10.2412 -10.2412c0 -0.100586 -0.00292969 -0.263672 -0.00683594 -0.364258v-256l0.000976562 -0.145508c0 -5.65234 -4.58789 -10.2412 -10.2402 -10.2412
c-5.65332 0 -10.2412 4.58887 -10.2412 10.2412l0.000976562 0.145508v256l-0.00292969 0.246094c0 4.52734 3.58496 9.00391 8.00293 9.99316c0.347656 0.111328 0.920898 0.254883 1.28027 0.320312z" />
    <glyph glyph-name="upload-2" unicode="&#xf10d;" 
d="M256 441.92l7.36035 -7.04004l81.9199 -81.9199c1.68262 -1.68262 3.04785 -4.98047 3.04785 -7.36035c0 -5.74512 -4.66211 -10.4082 -10.4082 -10.4082c-2.37988 0 -5.67676 1.36621 -7.36035 3.04883l-64.3193 64.3193v-282.239l0.000976562 -0.145508
c0 -5.65234 -4.58789 -10.2402 -10.2412 -10.2402s-10.2412 4.58789 -10.2412 10.2402l0.000976562 0.145508v282.239l-64.3193 -64.3193c-1.68359 -1.68262 -4.98047 -3.04883 -7.36035 -3.04883c-5.74609 0 -10.4082 4.66309 -10.4082 10.4082
c0 2.37988 1.36523 5.67773 3.04785 7.36035l81.9199 81.9199zM71.6797 284.16h10.2402h92.1602l0.144531 0.000976562c5.65332 0 10.2412 -4.58789 10.2412 -10.2412s-4.58789 -10.2412 -10.2412 -10.2412l-0.144531 0.000976562h-81.9199v-307.199h327.68v307.199
h-81.9199l-0.144531 -0.000976562c-5.65332 0 -10.2412 4.58789 -10.2412 10.2412s4.58789 10.2412 10.2412 10.2412l0.144531 -0.000976562h92.1602h10.2402v-10.2402v-327.68v-10.2402h-10.2402h-348.16h-10.2402v10.2402v327.68v10.2402z" />
    <glyph glyph-name="clothes" unicode="&#xf104;" 
d="M162.24 386.56c0.416016 0.0625 1.0957 0.113281 1.5166 0.113281c1.3291 0 3.37305 -0.480469 4.56348 -1.07324c0 0 41.3721 -19.5195 87.6797 -19.5195s87.6797 19.5195 87.6797 19.5195c1.19629 0.600586 3.25293 1.08691 4.5918 1.08691
c2.34473 0 5.5918 -1.34668 7.24805 -3.00684l153.601 -153.6c1.72168 -1.66602 3.12012 -4.96387 3.12012 -7.36035s-1.39844 -5.69336 -3.12012 -7.35938l-81.9199 -81.9199c-1.66699 -1.72266 -4.96387 -3.12012 -7.36035 -3.12012s-5.69336 1.39746 -7.35938 3.12012
l-13.1201 13.1191v-149.119c-0.000976562 -5.65234 -4.58887 -10.2402 -10.2402 -10.2402h-266.24c-5.65137 0 -10.2393 4.58789 -10.2402 10.2402v149.119l-23.3594 -23.3594c-1.6543 -1.64648 -4.89062 -2.9834 -7.22461 -2.9834
c-2.62109 0 -6.12207 1.62305 -7.81543 3.62305l-71.6807 81.9199c-1.37891 1.59375 -2.49902 4.59668 -2.49902 6.7041c0 2.25781 1.26367 5.41895 2.81934 7.05566l153.601 163.841c1.28906 1.42285 3.87012 2.85645 5.75977 3.19922zM166.72 364.48l-142.72 -152.32
l58.2402 -66.5605l33.2793 33.2803c1.66699 1.72363 4.96484 3.12207 7.3623 3.12207c5.65332 0 10.2412 -4.58789 10.2412 -10.2412c0 -0.0664062 -0.00195312 -0.173828 -0.00292969 -0.241211v-163.84h245.76v163.84l-0.00292969 0.241211
c0 5.65332 4.58789 10.2412 10.2412 10.2412c2.39746 0 5.69531 -1.39844 7.3623 -3.12207l23.3594 -23.3604l67.2002 67.2002l-141.76 141.761c-9.35938 -4.15723 -43.8877 -18.8809 -89.2803 -18.8809s-79.9209 14.7236 -89.2803 18.8809z" />
  </font>
</defs>
</svg>
